<svg width="15" height="48" viewBox="0 0 15 48" fill="none" xmlns="http://www.w3.org/2000/svg">
<path d="M5.63751 47.7888C4.86048 47.423 4.52721 46.4956 4.89277 45.718C4.89277 45.7172 4.98292 45.5265 5.14958 45.1557C5.31544 44.7842 5.5553 44.2402 5.84271 43.5594C6.4176 42.1959 7.18636 40.2816 7.95295 38.0937C9.49053 33.7275 10.9962 28.2239 10.9855 24.0277C10.9855 23.5796 10.9696 23.1478 10.9356 22.7352C10.6644 19.226 8.65096 14.82 6.41353 11.0901C4.18506 7.34981 1.77228 4.24434 0.826407 3.07041C0.555751 2.73434 0.412486 2.56515 0.41174 2.56434C-0.143004 1.90843 -0.0608577 0.926229 0.595298 0.371751C1.25139 -0.183474 2.23199 -0.101256 2.78673 0.5554C2.81482 0.589414 5.38721 3.63358 8.07532 7.85826C10.7538 12.0997 13.5972 17.4574 14.0344 22.4805C14.0754 22.9873 14.0948 23.5039 14.0948 24.0277C14.0844 28.9104 12.4693 34.583 10.8874 39.1236C9.29985 43.6536 7.72102 47.0115 7.70658 47.0434C7.44162 47.6072 6.88253 47.9373 6.29896 47.9373C6.07701 47.9373 5.8516 47.8894 5.63751 47.7888Z" fill="white"/>
</svg>
